<mxfile host="app.diagrams.net" agent="Mozilla/5.0 (Windows NT 10.0; Win64; x64) AppleWebKit/537.36 (KHTML, like Gecko) Chrome/131.0.0.0 Safari/537.36" version="24.8.6">
  <diagram name="Seite-1" id="sdpVUGcd8ZdfAYJY-DBQ">
    <mxGraphModel dx="1407" dy="539" grid="1" gridSize="10" guides="1" tooltips="1" connect="1" arrows="1" fold="1" page="1" pageScale="1" pageWidth="827" pageHeight="1169" math="0" shadow="0">
      <root>
        <mxCell id="0" />
        <mxCell id="1" parent="0" />
        <mxCell id="eThXzIZxuzrMQbyXuAEO-1" value="Skill" style="rounded=0;whiteSpace=wrap;html=1;fillColor=#FFE599;strokeColor=#d6b656;fontSize=14;" vertex="1" parent="1">
          <mxGeometry x="280" y="280" width="240" height="40" as="geometry" />
        </mxCell>
        <mxCell id="eThXzIZxuzrMQbyXuAEO-2" value="" style="rounded=0;whiteSpace=wrap;html=1;fillColor=#fff2cc;strokeColor=#d6b656;" vertex="1" parent="1">
          <mxGeometry x="280" y="320" width="240" height="290" as="geometry" />
        </mxCell>
        <mxCell id="eThXzIZxuzrMQbyXuAEO-3" value="Steuerungsvariablen" style="text;html=1;align=left;verticalAlign=middle;whiteSpace=wrap;rounded=0;fontStyle=4" vertex="1" parent="1">
          <mxGeometry x="290" y="320" width="120" height="30" as="geometry" />
        </mxCell>
        <mxCell id="eThXzIZxuzrMQbyXuAEO-8" style="edgeStyle=orthogonalEdgeStyle;rounded=0;orthogonalLoop=1;jettySize=auto;html=1;endArrow=none;endFill=0;strokeWidth=2;" edge="1" parent="1" source="eThXzIZxuzrMQbyXuAEO-5">
          <mxGeometry relative="1" as="geometry">
            <mxPoint x="530" y="360" as="targetPoint" />
          </mxGeometry>
        </mxCell>
        <mxCell id="eThXzIZxuzrMQbyXuAEO-5" value="" style="rounded=0;whiteSpace=wrap;html=1;fillColor=none;strokeColor=none;" vertex="1" parent="1">
          <mxGeometry x="290" y="350" width="220" height="20" as="geometry" />
        </mxCell>
        <mxCell id="eThXzIZxuzrMQbyXuAEO-7" value="" style="endArrow=none;html=1;rounded=0;strokeWidth=2;" edge="1" parent="1" source="eThXzIZxuzrMQbyXuAEO-5">
          <mxGeometry width="50" height="50" relative="1" as="geometry">
            <mxPoint x="330" y="420" as="sourcePoint" />
            <mxPoint x="270" y="360" as="targetPoint" />
          </mxGeometry>
        </mxCell>
        <mxCell id="eThXzIZxuzrMQbyXuAEO-9" style="edgeStyle=orthogonalEdgeStyle;rounded=0;orthogonalLoop=1;jettySize=auto;html=1;endArrow=none;endFill=0;strokeWidth=2;" edge="1" parent="1" source="eThXzIZxuzrMQbyXuAEO-10">
          <mxGeometry relative="1" as="geometry">
            <mxPoint x="530" y="380" as="targetPoint" />
          </mxGeometry>
        </mxCell>
        <mxCell id="eThXzIZxuzrMQbyXuAEO-10" value="" style="rounded=0;whiteSpace=wrap;html=1;fillColor=none;strokeColor=none;" vertex="1" parent="1">
          <mxGeometry x="290" y="370" width="220" height="20" as="geometry" />
        </mxCell>
        <mxCell id="eThXzIZxuzrMQbyXuAEO-12" style="edgeStyle=orthogonalEdgeStyle;rounded=0;orthogonalLoop=1;jettySize=auto;html=1;endArrow=none;endFill=0;strokeWidth=2;" edge="1" parent="1" source="eThXzIZxuzrMQbyXuAEO-13">
          <mxGeometry relative="1" as="geometry">
            <mxPoint x="530" y="400" as="targetPoint" />
          </mxGeometry>
        </mxCell>
        <mxCell id="eThXzIZxuzrMQbyXuAEO-13" value="" style="rounded=0;whiteSpace=wrap;html=1;fillColor=none;strokeColor=none;" vertex="1" parent="1">
          <mxGeometry x="290" y="390" width="220" height="20" as="geometry" />
        </mxCell>
        <mxCell id="eThXzIZxuzrMQbyXuAEO-15" style="edgeStyle=orthogonalEdgeStyle;rounded=0;orthogonalLoop=1;jettySize=auto;html=1;endArrow=none;endFill=0;strokeWidth=2;" edge="1" parent="1" source="eThXzIZxuzrMQbyXuAEO-16">
          <mxGeometry relative="1" as="geometry">
            <mxPoint x="530" y="420" as="targetPoint" />
          </mxGeometry>
        </mxCell>
        <mxCell id="eThXzIZxuzrMQbyXuAEO-16" value="" style="rounded=0;whiteSpace=wrap;html=1;fillColor=none;strokeColor=none;" vertex="1" parent="1">
          <mxGeometry x="290" y="410" width="220" height="20" as="geometry" />
        </mxCell>
        <mxCell id="eThXzIZxuzrMQbyXuAEO-18" style="edgeStyle=orthogonalEdgeStyle;rounded=0;orthogonalLoop=1;jettySize=auto;html=1;endArrow=none;endFill=0;strokeWidth=2;" edge="1" parent="1" source="eThXzIZxuzrMQbyXuAEO-19">
          <mxGeometry relative="1" as="geometry">
            <mxPoint x="530" y="440" as="targetPoint" />
          </mxGeometry>
        </mxCell>
        <mxCell id="eThXzIZxuzrMQbyXuAEO-19" value="" style="rounded=0;whiteSpace=wrap;html=1;fillColor=none;strokeColor=none;" vertex="1" parent="1">
          <mxGeometry x="290" y="430" width="220" height="20" as="geometry" />
        </mxCell>
        <mxCell id="eThXzIZxuzrMQbyXuAEO-21" value="bExecute" style="text;html=1;align=left;verticalAlign=middle;whiteSpace=wrap;rounded=0;fontStyle=0;fontSize=10;" vertex="1" parent="1">
          <mxGeometry x="294" y="355" width="76" height="10" as="geometry" />
        </mxCell>
        <mxCell id="eThXzIZxuzrMQbyXuAEO-22" value="bDone" style="text;html=1;align=left;verticalAlign=middle;whiteSpace=wrap;rounded=0;fontStyle=0;fontSize=10;" vertex="1" parent="1">
          <mxGeometry x="470" y="355" width="40" height="10" as="geometry" />
        </mxCell>
        <mxCell id="eThXzIZxuzrMQbyXuAEO-23" value="bBusy" style="text;html=1;align=left;verticalAlign=middle;whiteSpace=wrap;rounded=0;fontStyle=0;fontSize=10;" vertex="1" parent="1">
          <mxGeometry x="470" y="375" width="40" height="10" as="geometry" />
        </mxCell>
        <mxCell id="eThXzIZxuzrMQbyXuAEO-24" value="bLimit" style="text;html=1;align=left;verticalAlign=middle;whiteSpace=wrap;rounded=0;fontStyle=0;fontSize=10;" vertex="1" parent="1">
          <mxGeometry x="470" y="395" width="40" height="10" as="geometry" />
        </mxCell>
        <mxCell id="eThXzIZxuzrMQbyXuAEO-25" value="bError" style="text;html=1;align=left;verticalAlign=middle;whiteSpace=wrap;rounded=0;fontStyle=0;fontSize=10;" vertex="1" parent="1">
          <mxGeometry x="470" y="415" width="40" height="10" as="geometry" />
        </mxCell>
        <mxCell id="eThXzIZxuzrMQbyXuAEO-26" value="iErrorID" style="text;html=1;align=left;verticalAlign=middle;whiteSpace=wrap;rounded=0;fontStyle=0;fontSize=10;" vertex="1" parent="1">
          <mxGeometry x="465" y="435" width="45" height="10" as="geometry" />
        </mxCell>
        <mxCell id="eThXzIZxuzrMQbyXuAEO-27" value="Betriebsvariablen" style="text;html=1;align=left;verticalAlign=middle;whiteSpace=wrap;rounded=0;fontStyle=4" vertex="1" parent="1">
          <mxGeometry x="290" y="450" width="120" height="30" as="geometry" />
        </mxCell>
        <mxCell id="eThXzIZxuzrMQbyXuAEO-32" style="edgeStyle=orthogonalEdgeStyle;rounded=0;orthogonalLoop=1;jettySize=auto;html=1;endArrow=none;endFill=0;strokeWidth=2;" edge="1" parent="1" source="eThXzIZxuzrMQbyXuAEO-33">
          <mxGeometry relative="1" as="geometry">
            <mxPoint x="530" y="490" as="targetPoint" />
          </mxGeometry>
        </mxCell>
        <mxCell id="eThXzIZxuzrMQbyXuAEO-33" value="" style="rounded=0;whiteSpace=wrap;html=1;fillColor=none;strokeColor=none;" vertex="1" parent="1">
          <mxGeometry x="290" y="480" width="220" height="20" as="geometry" />
        </mxCell>
        <mxCell id="eThXzIZxuzrMQbyXuAEO-34" value="" style="endArrow=none;html=1;rounded=0;strokeWidth=2;" edge="1" parent="1" source="eThXzIZxuzrMQbyXuAEO-33">
          <mxGeometry width="50" height="50" relative="1" as="geometry">
            <mxPoint x="330" y="550" as="sourcePoint" />
            <mxPoint x="270" y="490" as="targetPoint" />
          </mxGeometry>
        </mxCell>
        <mxCell id="eThXzIZxuzrMQbyXuAEO-35" value="iSysCommand" style="text;html=1;align=left;verticalAlign=middle;whiteSpace=wrap;rounded=0;fontStyle=0;fontSize=10;" vertex="1" parent="1">
          <mxGeometry x="294" y="485" width="76" height="10" as="geometry" />
        </mxCell>
        <mxCell id="eThXzIZxuzrMQbyXuAEO-36" value="iSkillCommand" style="text;html=1;align=left;verticalAlign=middle;whiteSpace=wrap;rounded=0;fontStyle=0;fontSize=10;" vertex="1" parent="1">
          <mxGeometry x="435" y="485" width="75" height="10" as="geometry" />
        </mxCell>
        <mxCell id="eThXzIZxuzrMQbyXuAEO-38" value="" style="rounded=0;whiteSpace=wrap;html=1;fillColor=none;strokeColor=none;" vertex="1" parent="1">
          <mxGeometry x="290" y="500" width="220" height="20" as="geometry" />
        </mxCell>
        <mxCell id="eThXzIZxuzrMQbyXuAEO-39" value="" style="endArrow=none;html=1;rounded=0;strokeWidth=2;" edge="1" parent="1" source="eThXzIZxuzrMQbyXuAEO-38">
          <mxGeometry width="50" height="50" relative="1" as="geometry">
            <mxPoint x="330" y="570" as="sourcePoint" />
            <mxPoint x="270" y="510" as="targetPoint" />
          </mxGeometry>
        </mxCell>
        <mxCell id="eThXzIZxuzrMQbyXuAEO-40" value="iSysState" style="text;html=1;align=left;verticalAlign=middle;whiteSpace=wrap;rounded=0;fontStyle=0;fontSize=10;" vertex="1" parent="1">
          <mxGeometry x="294" y="505" width="76" height="10" as="geometry" />
        </mxCell>
        <mxCell id="eThXzIZxuzrMQbyXuAEO-43" value="" style="rounded=0;whiteSpace=wrap;html=1;fillColor=none;strokeColor=none;" vertex="1" parent="1">
          <mxGeometry x="290" y="520" width="220" height="20" as="geometry" />
        </mxCell>
        <mxCell id="eThXzIZxuzrMQbyXuAEO-44" value="" style="endArrow=none;html=1;rounded=0;strokeWidth=2;" edge="1" parent="1" source="eThXzIZxuzrMQbyXuAEO-43">
          <mxGeometry width="50" height="50" relative="1" as="geometry">
            <mxPoint x="330" y="590" as="sourcePoint" />
            <mxPoint x="270" y="530" as="targetPoint" />
          </mxGeometry>
        </mxCell>
        <mxCell id="eThXzIZxuzrMQbyXuAEO-45" value="iObjectState" style="text;html=1;align=left;verticalAlign=middle;whiteSpace=wrap;rounded=0;fontStyle=0;fontSize=10;" vertex="1" parent="1">
          <mxGeometry x="294" y="525" width="76" height="10" as="geometry" />
        </mxCell>
        <mxCell id="eThXzIZxuzrMQbyXuAEO-48" value="Prozessvariablen" style="text;html=1;align=left;verticalAlign=middle;whiteSpace=wrap;rounded=0;fontStyle=4" vertex="1" parent="1">
          <mxGeometry x="290" y="550" width="120" height="30" as="geometry" />
        </mxCell>
        <mxCell id="eThXzIZxuzrMQbyXuAEO-49" style="edgeStyle=orthogonalEdgeStyle;rounded=0;orthogonalLoop=1;jettySize=auto;html=1;endArrow=none;endFill=0;strokeWidth=2;" edge="1" parent="1" source="eThXzIZxuzrMQbyXuAEO-50">
          <mxGeometry relative="1" as="geometry">
            <mxPoint x="530" y="590" as="targetPoint" />
          </mxGeometry>
        </mxCell>
        <mxCell id="eThXzIZxuzrMQbyXuAEO-50" value="" style="rounded=0;whiteSpace=wrap;html=1;fillColor=none;strokeColor=none;" vertex="1" parent="1">
          <mxGeometry x="290" y="580" width="220" height="20" as="geometry" />
        </mxCell>
        <mxCell id="eThXzIZxuzrMQbyXuAEO-51" value="" style="endArrow=none;html=1;rounded=0;strokeWidth=2;" edge="1" parent="1" source="eThXzIZxuzrMQbyXuAEO-50">
          <mxGeometry width="50" height="50" relative="1" as="geometry">
            <mxPoint x="330" y="650" as="sourcePoint" />
            <mxPoint x="270" y="590" as="targetPoint" />
          </mxGeometry>
        </mxCell>
        <mxCell id="eThXzIZxuzrMQbyXuAEO-54" value="" style="rounded=0;whiteSpace=wrap;html=1;fillColor=#fff2cc;strokeColor=#d6b656;" vertex="1" parent="1">
          <mxGeometry x="280" y="610" width="240" height="70" as="geometry" />
        </mxCell>
        <mxCell id="eThXzIZxuzrMQbyXuAEO-55" value="Eigenschaften" style="text;html=1;align=left;verticalAlign=middle;whiteSpace=wrap;rounded=0;fontStyle=4" vertex="1" parent="1">
          <mxGeometry x="290" y="610" width="120" height="30" as="geometry" />
        </mxCell>
        <mxCell id="eThXzIZxuzrMQbyXuAEO-57" style="edgeStyle=orthogonalEdgeStyle;rounded=0;orthogonalLoop=1;jettySize=auto;html=1;endArrow=none;endFill=0;strokeWidth=2;" edge="1" parent="1" source="eThXzIZxuzrMQbyXuAEO-56">
          <mxGeometry relative="1" as="geometry">
            <mxPoint x="530" y="655" as="targetPoint" />
          </mxGeometry>
        </mxCell>
        <mxCell id="eThXzIZxuzrMQbyXuAEO-56" value="&lt;font style=&quot;font-size: 10px;&quot;&gt;P_State (GET)&lt;/font&gt;" style="rounded=0;whiteSpace=wrap;html=1;fillColor=#FFE599;strokeColor=#d6b656;fontSize=14;" vertex="1" parent="1">
          <mxGeometry x="290" y="640" width="220" height="30" as="geometry" />
        </mxCell>
        <mxCell id="eThXzIZxuzrMQbyXuAEO-58" value="" style="endArrow=none;html=1;rounded=0;fillColor=#fff2cc;strokeColor=#d6b656;entryX=1;entryY=0.464;entryDx=0;entryDy=0;entryPerimeter=0;exitX=0;exitY=0.466;exitDx=0;exitDy=0;exitPerimeter=0;strokeWidth=1;dashed=1;" edge="1" parent="1" source="eThXzIZxuzrMQbyXuAEO-2" target="eThXzIZxuzrMQbyXuAEO-2">
          <mxGeometry width="50" height="50" relative="1" as="geometry">
            <mxPoint x="220" y="440" as="sourcePoint" />
            <mxPoint x="270" y="390" as="targetPoint" />
          </mxGeometry>
        </mxCell>
        <mxCell id="eThXzIZxuzrMQbyXuAEO-59" value="" style="endArrow=none;html=1;rounded=0;fillColor=#fff2cc;strokeColor=#d6b656;exitX=0;exitY=0.792;exitDx=0;exitDy=0;exitPerimeter=0;strokeWidth=1;dashed=1;entryX=1;entryY=0.793;entryDx=0;entryDy=0;entryPerimeter=0;" edge="1" parent="1" source="eThXzIZxuzrMQbyXuAEO-2" target="eThXzIZxuzrMQbyXuAEO-2">
          <mxGeometry width="50" height="50" relative="1" as="geometry">
            <mxPoint x="279" y="549" as="sourcePoint" />
            <mxPoint x="520" y="550" as="targetPoint" />
          </mxGeometry>
        </mxCell>
        <mxCell id="eThXzIZxuzrMQbyXuAEO-60" value="Arbeitsplan /&amp;nbsp;&lt;div&gt;Sequenz&lt;/div&gt;" style="rounded=0;whiteSpace=wrap;html=1;rotation=-90;fillColor=#FFD966;strokeColor=#d6b656;" vertex="1" parent="1">
          <mxGeometry x="130" y="340" width="110" height="50" as="geometry" />
        </mxCell>
        <mxCell id="eThXzIZxuzrMQbyXuAEO-61" value="Objekt" style="rounded=0;whiteSpace=wrap;html=1;rotation=-90;fillColor=#f8cecc;strokeColor=#b85450;" vertex="1" parent="1">
          <mxGeometry x="550" y="480" width="110" height="30" as="geometry" />
        </mxCell>
        <mxCell id="eThXzIZxuzrMQbyXuAEO-62" value="Systemparameter" style="rounded=0;whiteSpace=wrap;html=1;rotation=-90;fillColor=#f5f5f5;fontColor=#333333;strokeColor=#666666;" vertex="1" parent="1">
          <mxGeometry x="551.25" y="620" width="107.5" height="30" as="geometry" />
        </mxCell>
        <mxCell id="eThXzIZxuzrMQbyXuAEO-65" value="Arbeitsplan /&amp;nbsp;&lt;div&gt;Sequenz&lt;/div&gt;" style="rounded=0;whiteSpace=wrap;html=1;rotation=-90;fillColor=#FFD966;strokeColor=#d6b656;" vertex="1" parent="1">
          <mxGeometry x="560" y="340" width="110" height="50" as="geometry" />
        </mxCell>
        <mxCell id="eThXzIZxuzrMQbyXuAEO-66" value="Objekt" style="rounded=0;whiteSpace=wrap;html=1;rotation=-90;fillColor=#f8cecc;strokeColor=#b85450;" vertex="1" parent="1">
          <mxGeometry x="140" y="480" width="110" height="30" as="geometry" />
        </mxCell>
        <mxCell id="eThXzIZxuzrMQbyXuAEO-67" value="Systemparameter" style="rounded=0;whiteSpace=wrap;html=1;rotation=-90;fillColor=#f5f5f5;fontColor=#333333;strokeColor=#666666;" vertex="1" parent="1">
          <mxGeometry x="141.25" y="620" width="107.5" height="30" as="geometry" />
        </mxCell>
        <mxCell id="eThXzIZxuzrMQbyXuAEO-68" value="" style="endArrow=none;html=1;rounded=0;" edge="1" parent="1">
          <mxGeometry width="50" height="50" relative="1" as="geometry">
            <mxPoint x="210" y="359.86" as="sourcePoint" />
            <mxPoint x="260" y="359.86" as="targetPoint" />
          </mxGeometry>
        </mxCell>
        <mxCell id="eThXzIZxuzrMQbyXuAEO-69" value="" style="endArrow=none;html=1;rounded=0;" edge="1" parent="1">
          <mxGeometry width="50" height="50" relative="1" as="geometry">
            <mxPoint x="540" y="359.71" as="sourcePoint" />
            <mxPoint x="550" y="360" as="targetPoint" />
          </mxGeometry>
        </mxCell>
        <mxCell id="eThXzIZxuzrMQbyXuAEO-70" value="" style="endArrow=none;html=1;rounded=0;" edge="1" parent="1">
          <mxGeometry width="50" height="50" relative="1" as="geometry">
            <mxPoint x="540" y="379.84999999999997" as="sourcePoint" />
            <mxPoint x="560" y="380.14" as="targetPoint" />
          </mxGeometry>
        </mxCell>
        <mxCell id="eThXzIZxuzrMQbyXuAEO-71" value="" style="endArrow=none;html=1;rounded=0;" edge="1" parent="1">
          <mxGeometry width="50" height="50" relative="1" as="geometry">
            <mxPoint x="540" y="399.85999999999996" as="sourcePoint" />
            <mxPoint x="570" y="400" as="targetPoint" />
          </mxGeometry>
        </mxCell>
        <mxCell id="eThXzIZxuzrMQbyXuAEO-72" value="" style="endArrow=none;html=1;rounded=0;" edge="1" parent="1">
          <mxGeometry width="50" height="50" relative="1" as="geometry">
            <mxPoint x="540" y="419.85999999999996" as="sourcePoint" />
            <mxPoint x="580" y="420" as="targetPoint" />
          </mxGeometry>
        </mxCell>
        <mxCell id="eThXzIZxuzrMQbyXuAEO-73" value="" style="endArrow=none;html=1;rounded=0;" edge="1" parent="1">
          <mxGeometry width="50" height="50" relative="1" as="geometry">
            <mxPoint x="550" y="340" as="sourcePoint" />
            <mxPoint x="550" y="360" as="targetPoint" />
          </mxGeometry>
        </mxCell>
        <mxCell id="eThXzIZxuzrMQbyXuAEO-74" value="" style="endArrow=none;html=1;rounded=0;" edge="1" parent="1">
          <mxGeometry width="50" height="50" relative="1" as="geometry">
            <mxPoint x="560" y="360" as="sourcePoint" />
            <mxPoint x="560" y="380" as="targetPoint" />
          </mxGeometry>
        </mxCell>
        <mxCell id="eThXzIZxuzrMQbyXuAEO-75" value="" style="endArrow=none;html=1;rounded=0;" edge="1" parent="1">
          <mxGeometry width="50" height="50" relative="1" as="geometry">
            <mxPoint x="570" y="380" as="sourcePoint" />
            <mxPoint x="570" y="400" as="targetPoint" />
          </mxGeometry>
        </mxCell>
        <mxCell id="eThXzIZxuzrMQbyXuAEO-76" value="" style="endArrow=none;html=1;rounded=0;" edge="1" parent="1">
          <mxGeometry width="50" height="50" relative="1" as="geometry">
            <mxPoint x="580" y="410" as="sourcePoint" />
            <mxPoint x="580" y="400" as="targetPoint" />
            <Array as="points">
              <mxPoint x="580" y="420" />
            </Array>
          </mxGeometry>
        </mxCell>
        <mxCell id="eThXzIZxuzrMQbyXuAEO-77" value="" style="endArrow=none;html=1;rounded=0;" edge="1" parent="1">
          <mxGeometry width="50" height="50" relative="1" as="geometry">
            <mxPoint x="550" y="340" as="sourcePoint" />
            <mxPoint x="590" y="340" as="targetPoint" />
          </mxGeometry>
        </mxCell>
        <mxCell id="eThXzIZxuzrMQbyXuAEO-78" value="" style="endArrow=none;html=1;rounded=0;" edge="1" parent="1">
          <mxGeometry width="50" height="50" relative="1" as="geometry">
            <mxPoint x="560" y="359.86" as="sourcePoint" />
            <mxPoint x="590" y="359.86" as="targetPoint" />
          </mxGeometry>
        </mxCell>
        <mxCell id="eThXzIZxuzrMQbyXuAEO-79" value="" style="endArrow=none;html=1;rounded=0;" edge="1" parent="1">
          <mxGeometry width="50" height="50" relative="1" as="geometry">
            <mxPoint x="570" y="379.86" as="sourcePoint" />
            <mxPoint x="590" y="379.86" as="targetPoint" />
          </mxGeometry>
        </mxCell>
        <mxCell id="eThXzIZxuzrMQbyXuAEO-80" value="" style="endArrow=none;html=1;rounded=0;" edge="1" parent="1">
          <mxGeometry width="50" height="50" relative="1" as="geometry">
            <mxPoint x="580" y="399.86" as="sourcePoint" />
            <mxPoint x="590" y="399.86" as="targetPoint" />
          </mxGeometry>
        </mxCell>
        <mxCell id="eThXzIZxuzrMQbyXuAEO-81" value="" style="endArrow=none;html=1;rounded=0;" edge="1" parent="1">
          <mxGeometry width="50" height="50" relative="1" as="geometry">
            <mxPoint x="540" y="489.85999999999996" as="sourcePoint" />
            <mxPoint x="590" y="489.86" as="targetPoint" />
          </mxGeometry>
        </mxCell>
        <mxCell id="eThXzIZxuzrMQbyXuAEO-82" value="" style="endArrow=none;html=1;rounded=0;" edge="1" parent="1">
          <mxGeometry width="50" height="50" relative="1" as="geometry">
            <mxPoint x="540" y="589.86" as="sourcePoint" />
            <mxPoint x="580" y="589.86" as="targetPoint" />
          </mxGeometry>
        </mxCell>
        <mxCell id="eThXzIZxuzrMQbyXuAEO-83" value="" style="endArrow=none;html=1;rounded=0;" edge="1" parent="1">
          <mxGeometry width="50" height="50" relative="1" as="geometry">
            <mxPoint x="580" y="510" as="sourcePoint" />
            <mxPoint x="580" y="590" as="targetPoint" />
          </mxGeometry>
        </mxCell>
        <mxCell id="eThXzIZxuzrMQbyXuAEO-84" value="" style="endArrow=none;html=1;rounded=0;" edge="1" parent="1">
          <mxGeometry width="50" height="50" relative="1" as="geometry">
            <mxPoint x="590" y="510" as="sourcePoint" />
            <mxPoint x="580" y="510" as="targetPoint" />
          </mxGeometry>
        </mxCell>
        <mxCell id="eThXzIZxuzrMQbyXuAEO-86" value="" style="endArrow=none;html=1;rounded=0;" edge="1" parent="1">
          <mxGeometry width="50" height="50" relative="1" as="geometry">
            <mxPoint x="540" y="654.8299999999999" as="sourcePoint" />
            <mxPoint x="590" y="654.83" as="targetPoint" />
          </mxGeometry>
        </mxCell>
        <mxCell id="eThXzIZxuzrMQbyXuAEO-87" value="" style="endArrow=none;html=1;rounded=0;" edge="1" parent="1">
          <mxGeometry width="50" height="50" relative="1" as="geometry">
            <mxPoint x="210" y="529.8299999999999" as="sourcePoint" />
            <mxPoint x="260" y="529.83" as="targetPoint" />
          </mxGeometry>
        </mxCell>
        <mxCell id="eThXzIZxuzrMQbyXuAEO-88" value="" style="endArrow=none;html=1;rounded=0;" edge="1" parent="1">
          <mxGeometry width="50" height="50" relative="1" as="geometry">
            <mxPoint x="240" y="509.66999999999996" as="sourcePoint" />
            <mxPoint x="260" y="509.96" as="targetPoint" />
          </mxGeometry>
        </mxCell>
        <mxCell id="eThXzIZxuzrMQbyXuAEO-89" value="" style="endArrow=none;html=1;rounded=0;" edge="1" parent="1">
          <mxGeometry width="50" height="50" relative="1" as="geometry">
            <mxPoint x="230" y="490" as="sourcePoint" />
            <mxPoint x="260" y="490.12000000000006" as="targetPoint" />
          </mxGeometry>
        </mxCell>
        <mxCell id="eThXzIZxuzrMQbyXuAEO-90" value="" style="endArrow=none;html=1;rounded=0;endSize=6;startSize=6;targetPerimeterSpacing=0;" edge="1" parent="1">
          <mxGeometry width="50" height="50" relative="1" as="geometry">
            <mxPoint x="240" y="510" as="sourcePoint" />
            <mxPoint x="240" y="526" as="targetPoint" />
          </mxGeometry>
        </mxCell>
        <mxCell id="eThXzIZxuzrMQbyXuAEO-91" value="" style="endArrow=none;html=1;rounded=0;" edge="1" parent="1">
          <mxGeometry width="50" height="50" relative="1" as="geometry">
            <mxPoint x="240" y="534" as="sourcePoint" />
            <mxPoint x="240" y="660" as="targetPoint" />
          </mxGeometry>
        </mxCell>
        <mxCell id="eThXzIZxuzrMQbyXuAEO-92" value="" style="endArrow=none;html=1;rounded=0;" edge="1" parent="1">
          <mxGeometry width="50" height="50" relative="1" as="geometry">
            <mxPoint x="210" y="660" as="sourcePoint" />
            <mxPoint x="240" y="660" as="targetPoint" />
          </mxGeometry>
        </mxCell>
        <mxCell id="eThXzIZxuzrMQbyXuAEO-93" value="" style="endArrow=none;html=1;rounded=0;" edge="1" parent="1">
          <mxGeometry width="50" height="50" relative="1" as="geometry">
            <mxPoint x="230" y="490" as="sourcePoint" />
            <mxPoint x="230" y="526" as="targetPoint" />
          </mxGeometry>
        </mxCell>
        <mxCell id="eThXzIZxuzrMQbyXuAEO-94" value="" style="endArrow=none;html=1;rounded=0;" edge="1" parent="1">
          <mxGeometry width="50" height="50" relative="1" as="geometry">
            <mxPoint x="230" y="534" as="sourcePoint" />
            <mxPoint x="230" y="630" as="targetPoint" />
          </mxGeometry>
        </mxCell>
        <mxCell id="eThXzIZxuzrMQbyXuAEO-95" value="" style="endArrow=none;html=1;rounded=0;" edge="1" parent="1">
          <mxGeometry width="50" height="50" relative="1" as="geometry">
            <mxPoint x="230" y="630" as="sourcePoint" />
            <mxPoint x="210" y="630" as="targetPoint" />
          </mxGeometry>
        </mxCell>
        <mxCell id="eThXzIZxuzrMQbyXuAEO-96" value="" style="endArrow=none;html=1;rounded=0;" edge="1" parent="1">
          <mxGeometry width="50" height="50" relative="1" as="geometry">
            <mxPoint x="540" y="440" as="sourcePoint" />
            <mxPoint x="570" y="439.8" as="targetPoint" />
          </mxGeometry>
        </mxCell>
        <mxCell id="eThXzIZxuzrMQbyXuAEO-97" value="" style="endArrow=none;html=1;rounded=0;" edge="1" parent="1">
          <mxGeometry width="50" height="50" relative="1" as="geometry">
            <mxPoint x="570" y="486" as="sourcePoint" />
            <mxPoint x="570" y="440" as="targetPoint" />
          </mxGeometry>
        </mxCell>
        <mxCell id="eThXzIZxuzrMQbyXuAEO-98" value="" style="endArrow=none;html=1;rounded=0;" edge="1" parent="1">
          <mxGeometry width="50" height="50" relative="1" as="geometry">
            <mxPoint x="570" y="586" as="sourcePoint" />
            <mxPoint x="570" y="494" as="targetPoint" />
          </mxGeometry>
        </mxCell>
        <mxCell id="eThXzIZxuzrMQbyXuAEO-99" value="" style="endArrow=none;html=1;rounded=0;" edge="1" parent="1">
          <mxGeometry width="50" height="50" relative="1" as="geometry">
            <mxPoint x="570" y="630" as="sourcePoint" />
            <mxPoint x="570" y="594" as="targetPoint" />
          </mxGeometry>
        </mxCell>
        <mxCell id="eThXzIZxuzrMQbyXuAEO-100" value="" style="endArrow=none;html=1;rounded=0;" edge="1" parent="1">
          <mxGeometry width="50" height="50" relative="1" as="geometry">
            <mxPoint x="570" y="630" as="sourcePoint" />
            <mxPoint x="590" y="630" as="targetPoint" />
          </mxGeometry>
        </mxCell>
        <mxCell id="eThXzIZxuzrMQbyXuAEO-101" value="" style="endArrow=none;html=1;rounded=0;" edge="1" parent="1">
          <mxGeometry width="50" height="50" relative="1" as="geometry">
            <mxPoint x="250" y="590" as="sourcePoint" />
            <mxPoint x="260" y="590.1400000000001" as="targetPoint" />
          </mxGeometry>
        </mxCell>
        <mxCell id="eThXzIZxuzrMQbyXuAEO-102" value="" style="endArrow=none;html=1;rounded=0;" edge="1" parent="1">
          <mxGeometry width="50" height="50" relative="1" as="geometry">
            <mxPoint x="250" y="590" as="sourcePoint" />
            <mxPoint x="250" y="534" as="targetPoint" />
          </mxGeometry>
        </mxCell>
        <mxCell id="eThXzIZxuzrMQbyXuAEO-103" value="" style="endArrow=none;html=1;rounded=0;" edge="1" parent="1">
          <mxGeometry width="50" height="50" relative="1" as="geometry">
            <mxPoint x="250" y="526" as="sourcePoint" />
            <mxPoint x="250" y="514" as="targetPoint" />
          </mxGeometry>
        </mxCell>
        <mxCell id="eThXzIZxuzrMQbyXuAEO-105" value="" style="endArrow=none;html=1;rounded=0;" edge="1" parent="1">
          <mxGeometry width="50" height="50" relative="1" as="geometry">
            <mxPoint x="250" y="494" as="sourcePoint" />
            <mxPoint x="250" y="506" as="targetPoint" />
          </mxGeometry>
        </mxCell>
        <mxCell id="eThXzIZxuzrMQbyXuAEO-106" value="" style="endArrow=none;html=1;rounded=0;" edge="1" parent="1">
          <mxGeometry width="50" height="50" relative="1" as="geometry">
            <mxPoint x="250" y="380" as="sourcePoint" />
            <mxPoint x="250" y="486" as="targetPoint" />
          </mxGeometry>
        </mxCell>
        <mxCell id="eThXzIZxuzrMQbyXuAEO-107" value="" style="endArrow=none;html=1;rounded=0;" edge="1" parent="1">
          <mxGeometry width="50" height="50" relative="1" as="geometry">
            <mxPoint x="250" y="379.92" as="sourcePoint" />
            <mxPoint x="210" y="379.92" as="targetPoint" />
          </mxGeometry>
        </mxCell>
        <mxCell id="eThXzIZxuzrMQbyXuAEO-110" value="2" style="ellipse;whiteSpace=wrap;html=1;aspect=fixed;fontSize=6;fillColor=#f5f5f5;fontColor=#333333;strokeColor=#666666;" vertex="1" parent="1">
          <mxGeometry x="525" y="426" width="10" height="10" as="geometry" />
        </mxCell>
        <mxCell id="eThXzIZxuzrMQbyXuAEO-111" value="2" style="ellipse;whiteSpace=wrap;html=1;aspect=fixed;fontSize=6;fillColor=#f5f5f5;fontColor=#333333;strokeColor=#666666;" vertex="1" parent="1">
          <mxGeometry x="524" y="642" width="10" height="10" as="geometry" />
        </mxCell>
        <mxCell id="eThXzIZxuzrMQbyXuAEO-112" value="2" style="ellipse;whiteSpace=wrap;html=1;aspect=fixed;fontSize=6;fillColor=#f5f5f5;fontColor=#333333;strokeColor=#666666;" vertex="1" parent="1">
          <mxGeometry x="265" y="476" width="10" height="10" as="geometry" />
        </mxCell>
        <mxCell id="eThXzIZxuzrMQbyXuAEO-113" value="2" style="ellipse;whiteSpace=wrap;html=1;aspect=fixed;fontSize=6;fillColor=#f5f5f5;fontColor=#333333;strokeColor=#666666;" vertex="1" parent="1">
          <mxGeometry x="265" y="496" width="10" height="10" as="geometry" />
        </mxCell>
        <mxCell id="eThXzIZxuzrMQbyXuAEO-114" value="3" style="ellipse;whiteSpace=wrap;html=1;aspect=fixed;fontSize=6;fillColor=#f5f5f5;fontColor=#333333;strokeColor=#666666;" vertex="1" parent="1">
          <mxGeometry x="265" y="516" width="10" height="10" as="geometry" />
        </mxCell>
        <mxCell id="eThXzIZxuzrMQbyXuAEO-115" value="3" style="ellipse;whiteSpace=wrap;html=1;aspect=fixed;fontSize=6;fillColor=#f5f5f5;fontColor=#333333;strokeColor=#666666;" vertex="1" parent="1">
          <mxGeometry x="525" y="476" width="10" height="10" as="geometry" />
        </mxCell>
        <mxCell id="eThXzIZxuzrMQbyXuAEO-116" value="3" style="ellipse;whiteSpace=wrap;html=1;aspect=fixed;fontSize=6;fillColor=#f5f5f5;fontColor=#333333;strokeColor=#666666;" vertex="1" parent="1">
          <mxGeometry x="525" y="576" width="10" height="10" as="geometry" />
        </mxCell>
        <mxCell id="eThXzIZxuzrMQbyXuAEO-118" value="2: Koordinationsschnittstelle" style="text;html=1;align=left;verticalAlign=middle;whiteSpace=wrap;rounded=0;fontSize=8;fontStyle=2" vertex="1" parent="1">
          <mxGeometry x="280" y="710" width="140" height="10" as="geometry" />
        </mxCell>
        <mxCell id="eThXzIZxuzrMQbyXuAEO-119" value="3: Modellschnittstelle" style="text;html=1;align=left;verticalAlign=middle;whiteSpace=wrap;rounded=0;fontSize=8;fontStyle=2" vertex="1" parent="1">
          <mxGeometry x="280" y="720" width="140" height="20" as="geometry" />
        </mxCell>
        <mxCell id="eThXzIZxuzrMQbyXuAEO-121" value="1: Interne Schnittstelle von Prozessmodell" style="text;html=1;align=left;verticalAlign=middle;whiteSpace=wrap;rounded=0;fontSize=8;fontStyle=2" vertex="1" parent="1">
          <mxGeometry x="280" y="690" width="210" height="20" as="geometry" />
        </mxCell>
        <mxCell id="eThXzIZxuzrMQbyXuAEO-122" value="1" style="ellipse;whiteSpace=wrap;html=1;aspect=fixed;fontSize=6;fillColor=#f5f5f5;fontColor=#333333;strokeColor=#666666;" vertex="1" parent="1">
          <mxGeometry x="265" y="346" width="10" height="10" as="geometry" />
        </mxCell>
        <mxCell id="eThXzIZxuzrMQbyXuAEO-123" value="1" style="ellipse;whiteSpace=wrap;html=1;aspect=fixed;fontSize=6;fillColor=#f5f5f5;fontColor=#333333;strokeColor=#666666;" vertex="1" parent="1">
          <mxGeometry x="525" y="346" width="10" height="10" as="geometry" />
        </mxCell>
        <mxCell id="eThXzIZxuzrMQbyXuAEO-124" value="1" style="ellipse;whiteSpace=wrap;html=1;aspect=fixed;fontSize=6;fillColor=#f5f5f5;fontColor=#333333;strokeColor=#666666;" vertex="1" parent="1">
          <mxGeometry x="525" y="366" width="10" height="10" as="geometry" />
        </mxCell>
        <mxCell id="eThXzIZxuzrMQbyXuAEO-125" value="1" style="ellipse;whiteSpace=wrap;html=1;aspect=fixed;fontSize=6;fillColor=#f5f5f5;fontColor=#333333;strokeColor=#666666;" vertex="1" parent="1">
          <mxGeometry x="525" y="386" width="10" height="10" as="geometry" />
        </mxCell>
        <mxCell id="eThXzIZxuzrMQbyXuAEO-126" value="1" style="ellipse;whiteSpace=wrap;html=1;aspect=fixed;fontSize=6;fillColor=#f5f5f5;fontColor=#333333;strokeColor=#666666;" vertex="1" parent="1">
          <mxGeometry x="525" y="406" width="10" height="10" as="geometry" />
        </mxCell>
        <mxCell id="eThXzIZxuzrMQbyXuAEO-127" value="1" style="ellipse;whiteSpace=wrap;html=1;aspect=fixed;fontSize=6;fillColor=#f5f5f5;fontColor=#333333;strokeColor=#666666;" vertex="1" parent="1">
          <mxGeometry x="265" y="576" width="10" height="10" as="geometry" />
        </mxCell>
      </root>
    </mxGraphModel>
  </diagram>
</mxfile>
